<svg xmlns="http://www.w3.org/2000/svg" xmlns:xlink="http://www.w3.org/1999/xlink" width="300" zoomAndPan="magnify" viewBox="0 0 224.87999 225" height="300" preserveAspectRatio="xMidYMid meet" version="1.0"><defs><clipPath id="8b53119e6b"><path d="M 50 156 L 75 156 L 75 181 L 50 181 Z M 50 156 " clip-rule="nonzero"/></clipPath><clipPath id="e2a0510fa8"><path d="M 62.375 148.640625 L 82.441406 168.707031 L 62.375 188.773438 L 42.304688 168.707031 Z M 62.375 148.640625 " clip-rule="nonzero"/></clipPath><clipPath id="a969f9b73d"><path d="M 73.035156 159.300781 L 71.78125 158.046875 C 70.046875 156.316406 67.242188 156.316406 65.507812 158.046875 C 63.777344 159.777344 60.96875 159.777344 59.238281 158.046875 C 57.507812 156.316406 54.699219 156.316406 52.96875 158.046875 L 51.710938 159.300781 C 49.980469 161.03125 49.980469 163.839844 51.710938 165.570312 C 53.445312 167.304688 53.445312 170.109375 51.710938 171.84375 C 49.980469 173.574219 49.980469 176.382812 51.710938 178.113281 L 52.96875 179.367188 C 54.699219 181.101562 57.507812 181.101562 59.238281 179.367188 C 60.96875 177.636719 63.777344 177.636719 65.507812 179.367188 C 67.242188 181.101562 70.046875 181.101562 71.78125 179.367188 L 73.035156 178.113281 C 74.765625 176.382812 74.765625 173.574219 73.035156 171.84375 C 71.304688 170.109375 71.304688 167.304688 73.035156 165.570312 C 74.765625 163.839844 74.765625 161.03125 73.035156 159.300781 Z M 73.035156 159.300781 " clip-rule="nonzero"/></clipPath><clipPath id="8e7b82075c"><path d="M 50 156 L 75 156 L 75 181 L 50 181 Z M 50 156 " clip-rule="nonzero"/></clipPath><clipPath id="69d819c40a"><path d="M 62.375 148.640625 L 82.515625 168.78125 L 62.375 188.921875 L 42.230469 168.78125 Z M 62.375 148.640625 " clip-rule="nonzero"/></clipPath><clipPath id="6544c5f535"><path d="M 62.375 148.640625 L 82.441406 168.707031 L 62.375 188.773438 L 42.304688 168.707031 Z M 62.375 148.640625 " clip-rule="nonzero"/></clipPath><clipPath id="ceeb7ed461"><path d="M 73.035156 159.300781 L 71.78125 158.046875 C 70.046875 156.316406 67.242188 156.316406 65.507812 158.046875 C 63.777344 159.777344 60.96875 159.777344 59.238281 158.046875 C 57.507812 156.316406 54.699219 156.316406 52.96875 158.046875 L 51.714844 159.300781 C 49.980469 161.03125 49.980469 163.839844 51.714844 165.570312 C 53.445312 167.304688 53.445312 170.109375 51.714844 171.84375 C 49.980469 173.574219 49.980469 176.382812 51.714844 178.113281 L 52.96875 179.367188 C 54.699219 181.101562 57.507812 181.101562 59.238281 179.367188 C 60.96875 177.636719 63.777344 177.636719 65.507812 179.367188 C 67.242188 181.101562 70.046875 181.101562 71.78125 179.367188 L 73.035156 178.113281 C 74.765625 176.382812 74.765625 173.574219 73.035156 171.84375 C 71.300781 170.109375 71.300781 167.304688 73.035156 165.570312 C 74.765625 163.839844 74.765625 161.03125 73.035156 159.300781 Z M 73.035156 159.300781 " clip-rule="nonzero"/></clipPath><clipPath id="742f9728f2"><path d="M 33.441406 45.359375 L 74.589844 45.359375 L 74.589844 86.503906 L 33.441406 86.503906 Z M 33.441406 45.359375 " clip-rule="nonzero"/></clipPath><clipPath id="7aa9d82df1"><path d="M 54.015625 45.359375 C 42.652344 45.359375 33.441406 54.570312 33.441406 65.929688 C 33.441406 77.292969 42.652344 86.503906 54.015625 86.503906 C 65.378906 86.503906 74.589844 77.292969 74.589844 65.929688 C 74.589844 54.570312 65.378906 45.359375 54.015625 45.359375 Z M 54.015625 45.359375 " clip-rule="nonzero"/></clipPath><clipPath id="f94d7f543c"><path d="M 133 12 L 213 12 L 213 92 L 133 92 Z M 133 12 " clip-rule="nonzero"/></clipPath><clipPath id="623a19b123"><path d="M 172.777344 -8.175781 L 233.117188 52.160156 L 172.777344 112.5 L 112.4375 52.160156 Z M 172.777344 -8.175781 " clip-rule="nonzero"/></clipPath><clipPath id="f207c7e5c2"><path d="M 211.078125 30.125 L 194.8125 13.859375 C 193.054688 12.101562 190.207031 12.101562 188.453125 13.859375 L 175.957031 26.355469 C 174.199219 28.109375 171.351562 28.109375 169.59375 26.355469 L 157.101562 13.859375 C 155.34375 12.101562 152.496094 12.101562 150.738281 13.859375 L 134.472656 30.125 C 132.714844 31.882812 132.714844 34.730469 134.472656 36.484375 L 146.96875 48.980469 C 148.722656 50.738281 148.722656 53.585938 146.96875 55.34375 L 134.472656 67.835938 C 132.714844 69.59375 132.714844 72.441406 134.472656 74.199219 L 150.738281 90.464844 C 152.496094 92.222656 155.34375 92.222656 157.101562 90.464844 L 169.59375 77.96875 C 171.351562 76.214844 174.199219 76.214844 175.957031 77.96875 L 188.453125 90.464844 C 190.207031 92.222656 193.054688 92.222656 194.8125 90.464844 L 211.078125 74.199219 C 212.835938 72.441406 212.835938 69.59375 211.078125 67.835938 L 198.582031 55.34375 C 196.828125 53.585938 196.828125 50.738281 198.582031 48.980469 L 211.078125 36.484375 C 212.835938 34.730469 212.835938 31.882812 211.078125 30.125 Z M 211.078125 30.125 " clip-rule="nonzero"/></clipPath><clipPath id="8d6f99d18f"><path d="M 133 12 L 213 12 L 213 92 L 133 92 Z M 133 12 " clip-rule="nonzero"/></clipPath><clipPath id="bd6f1074d6"><path d="M 172.777344 -8.175781 L 233.203125 52.246094 L 172.777344 112.671875 L 112.351562 52.246094 Z M 172.777344 -8.175781 " clip-rule="nonzero"/></clipPath><clipPath id="824b4c95ca"><path d="M 172.777344 -8.175781 L 233.109375 52.15625 L 172.777344 112.492188 L 112.441406 52.15625 Z M 172.777344 -8.175781 " clip-rule="nonzero"/></clipPath><clipPath id="b2211106b6"><path d="M 211.074219 30.121094 L 194.808594 13.855469 C 193.054688 12.101562 190.207031 12.101562 188.449219 13.855469 L 175.957031 26.351562 C 174.199219 28.109375 171.351562 28.109375 169.597656 26.351562 L 157.101562 13.855469 C 155.34375 12.101562 152.496094 12.101562 150.742188 13.855469 L 134.476562 30.121094 C 132.71875 31.878906 132.71875 34.726562 134.476562 36.480469 L 146.96875 48.976562 C 148.726562 50.734375 148.726562 53.582031 146.96875 55.335938 L 134.476562 67.832031 C 132.71875 69.585938 132.71875 72.433594 134.476562 74.191406 L 150.742188 90.457031 C 152.496094 92.210938 155.34375 92.210938 157.101562 90.457031 L 169.597656 77.960938 C 171.351562 76.207031 174.199219 76.207031 175.957031 77.960938 L 188.449219 90.457031 C 190.207031 92.210938 193.054688 92.210938 194.808594 90.457031 L 211.074219 74.191406 C 212.832031 72.433594 212.832031 69.585938 211.074219 67.832031 L 198.582031 55.335938 C 196.824219 53.582031 196.824219 50.734375 198.582031 48.976562 L 211.074219 36.480469 C 212.832031 34.726562 212.832031 31.878906 211.074219 30.121094 Z M 211.074219 30.121094 " clip-rule="nonzero"/></clipPath><clipPath id="7f82fce4ce"><path d="M 161.769531 188.773438 L 183.507812 188.773438 L 183.507812 210.511719 L 161.769531 210.511719 Z M 161.769531 188.773438 " clip-rule="nonzero"/></clipPath><clipPath id="c8d9c00a4f"><path d="M 172.742188 188.773438 C 166.683594 188.773438 161.769531 193.6875 161.769531 199.75 C 161.769531 205.8125 166.683594 210.722656 172.742188 210.722656 C 178.804688 210.722656 183.71875 205.8125 183.71875 199.75 C 183.71875 193.6875 178.804688 188.773438 172.742188 188.773438 Z M 172.742188 188.773438 " clip-rule="nonzero"/></clipPath></defs><g clip-path="url(#8b53119e6b)"><g clip-path="url(#e2a0510fa8)"><g clip-path="url(#a969f9b73d)"><path fill="#9db4c0" d="M 62.375 148.640625 L 82.441406 168.707031 L 62.375 188.773438 L 42.304688 168.707031 Z M 62.375 148.640625 " fill-opacity="1" fill-rule="nonzero"/></g></g></g><g clip-path="url(#8e7b82075c)"><g clip-path="url(#69d819c40a)"><g clip-path="url(#6544c5f535)"><g clip-path="url(#ceeb7ed461)"><path stroke-linecap="butt" transform="matrix(0.530047, 0.530047, -0.530047, 0.530047, 62.373661, 148.640077)" fill="none" stroke-linejoin="miter" d="M 20.113491 -0.000746051 L 17.747841 -0.000746051 C 14.479411 0.00293876 11.833715 2.648635 11.83003 5.917064 C 11.83003 9.181809 9.18065 11.83119 5.915905 11.83119 C 2.65116 11.83119 0.00177953 14.48057 0.00177953 17.745315 L 0.00177953 20.110965 C -0.00190528 23.379395 2.647476 26.028775 5.915905 26.025091 C 9.184334 26.028775 11.83003 28.674471 11.833715 31.942901 C 11.83003 35.21133 14.479411 37.860711 17.747841 37.857026 L 20.113491 37.857026 C 23.38192 37.860711 26.031301 35.21133 26.027616 31.942901 C 26.027616 28.678156 28.676997 26.028775 31.941742 26.028775 C 35.213856 26.028775 37.859552 23.38308 37.859552 20.110965 L 37.859552 17.745315 C 37.859552 14.48057 35.210171 11.83119 31.945427 11.83119 C 28.673312 11.83119 26.027616 9.185494 26.027616 5.913379 C 26.027616 2.648635 23.378235 -0.000746051 20.113491 -0.000746051 Z M 20.113491 -0.000746051 " stroke="#9db4c0" stroke-width="12" stroke-opacity="1" stroke-miterlimit="4"/></g></g></g></g><g clip-path="url(#742f9728f2)"><g clip-path="url(#7aa9d82df1)"><path stroke-linecap="butt" transform="matrix(0.7496, 0, 0, 0.7496, 33.44204, 45.358375)" fill="none" stroke-linejoin="miter" d="M 27.446087 0.00133395 C 12.28696 0.00133395 -0.000844925 12.289139 -0.000844925 27.443055 C -0.000844925 42.602183 12.28696 54.889988 27.446087 54.889988 C 42.605215 54.889988 54.89302 42.602183 54.89302 27.443055 C 54.89302 12.289139 42.605215 0.00133395 27.446087 0.00133395 Z M 27.446087 0.00133395 " stroke="#9db4c0" stroke-width="34" stroke-opacity="1" stroke-miterlimit="4"/></g></g><g clip-path="url(#f94d7f543c)"><g clip-path="url(#623a19b123)"><g clip-path="url(#f207c7e5c2)"><path fill="#9db4c0" d="M 172.777344 -8.175781 L 233.117188 52.160156 L 172.777344 112.5 L 112.4375 52.160156 Z M 172.777344 -8.175781 " fill-opacity="1" fill-rule="nonzero"/></g></g></g><g clip-path="url(#8d6f99d18f)"><g clip-path="url(#bd6f1074d6)"><g clip-path="url(#824b4c95ca)"><g clip-path="url(#b2211106b6)"><path stroke-linecap="butt" transform="matrix(0.530047, 0.530047, -0.530047, 0.530047, 172.775831, -8.177667)" fill="none" stroke-linejoin="miter" d="M 72.255026 0.000352373 L 41.567901 0.000352373 C 38.258938 0.000352373 35.572709 2.686581 35.569024 5.999229 L 35.572709 29.57098 C 35.572709 32.887312 32.88648 35.573541 29.573833 35.569856 L 5.998397 35.569856 C 2.68575 35.573541 -0.00047888 38.259769 -0.00047888 41.568732 L -0.00047888 72.255857 C -0.00047888 75.572189 2.68575 78.258418 5.998397 78.254734 L 29.570148 78.258418 C 32.88648 78.258418 35.572709 80.944647 35.569024 84.257295 L 35.572709 107.829046 C 35.569024 111.141693 38.255253 113.827922 41.571585 113.827922 L 72.258711 113.827922 C 75.567673 113.827922 78.253902 111.141693 78.257587 107.829046 L 78.257587 84.25361 C 78.257587 80.944647 80.943816 78.258418 84.256463 78.254734 L 107.828214 78.258418 C 111.140862 78.254734 113.82709 75.568505 113.82709 72.259542 L 113.82709 41.572417 C 113.82709 38.256085 111.140862 35.569856 107.828214 35.573541 L 84.256463 35.569856 C 80.943816 35.573541 78.257587 32.887312 78.257587 29.57098 L 78.253902 5.999229 C 78.257587 2.686581 75.571358 0.000352373 72.255026 0.000352373 Z M 72.255026 0.000352373 " stroke="#9db4c0" stroke-width="12" stroke-opacity="1" stroke-miterlimit="4"/></g></g></g></g><g clip-path="url(#7f82fce4ce)"><g clip-path="url(#c8d9c00a4f)"><path stroke-linecap="butt" transform="matrix(0.7496, 0, 0, 0.7496, 161.768922, 188.77486)" fill="none" stroke-linejoin="miter" d="M 14.63883 -0.00189702 C 6.556393 -0.00189702 0.000813218 6.553683 0.000813218 14.641331 C 0.000813218 22.728978 6.556393 29.279347 14.63883 29.279347 C 22.726477 29.279347 29.282057 22.728978 29.282057 14.641331 C 29.282057 6.553683 22.726477 -0.00189702 14.63883 -0.00189702 Z M 14.63883 -0.00189702 " stroke="#9db4c0" stroke-width="40" stroke-opacity="1" stroke-miterlimit="4"/></g></g></svg>