<svg xmlns="http://www.w3.org/2000/svg" xmlns:xlink="http://www.w3.org/1999/xlink" width="300" zoomAndPan="magnify" viewBox="0 0 224.87999 225" height="300" preserveAspectRatio="xMidYMid meet" version="1.0"><defs><clipPath id="e73dd1be4d"><path d="M 0 0.0585938 L 224.761719 0.0585938 L 224.761719 224.9375 L 0 224.9375 Z M 0 0.0585938 " clip-rule="nonzero"/></clipPath><clipPath id="85c9cd98f4"><path d="M 23.859375 23.917969 L 109.292969 23.917969 L 109.292969 109.351562 L 23.859375 109.351562 Z M 23.859375 23.917969 " clip-rule="nonzero"/></clipPath><clipPath id="5e72c5db44"><path d="M 38.847656 23.917969 L 94.300781 23.917969 C 102.578125 23.917969 109.292969 30.628906 109.292969 38.910156 L 109.292969 94.359375 C 109.292969 102.640625 102.578125 109.351562 94.300781 109.351562 L 38.847656 109.351562 C 30.570312 109.351562 23.859375 102.640625 23.859375 94.359375 L 23.859375 38.910156 C 23.859375 30.628906 30.570312 23.917969 38.847656 23.917969 Z M 38.847656 23.917969 " clip-rule="nonzero"/></clipPath><clipPath id="869723c5cd"><path d="M 113.105469 113.164062 L 198.535156 113.164062 L 198.535156 198.597656 L 113.105469 198.597656 Z M 113.105469 113.164062 " clip-rule="nonzero"/></clipPath><clipPath id="4df717001e"><path d="M 128.09375 113.164062 L 183.546875 113.164062 C 191.824219 113.164062 198.535156 119.875 198.535156 128.15625 L 198.535156 183.605469 C 198.535156 191.886719 191.824219 198.597656 183.546875 198.597656 L 128.09375 198.597656 C 119.816406 198.597656 113.105469 191.886719 113.105469 183.605469 L 113.105469 128.15625 C 113.105469 119.875 119.816406 113.164062 128.09375 113.164062 Z M 128.09375 113.164062 " clip-rule="nonzero"/></clipPath><clipPath id="2aa0d8789c"><path d="M 113.105469 23.917969 L 198.535156 23.917969 L 198.535156 109.351562 L 113.105469 109.351562 Z M 113.105469 23.917969 " clip-rule="nonzero"/></clipPath><clipPath id="66c87c1bec"><path d="M 128.09375 23.917969 L 183.546875 23.917969 C 191.824219 23.917969 198.535156 30.628906 198.535156 38.910156 L 198.535156 94.359375 C 198.535156 102.640625 191.824219 109.351562 183.546875 109.351562 L 128.09375 109.351562 C 119.816406 109.351562 113.105469 102.640625 113.105469 94.359375 L 113.105469 38.910156 C 113.105469 30.628906 119.816406 23.917969 128.09375 23.917969 Z M 128.09375 23.917969 " clip-rule="nonzero"/></clipPath><clipPath id="b692e38126"><path d="M 23.859375 113.164062 L 109.292969 113.164062 L 109.292969 198.597656 L 23.859375 198.597656 Z M 23.859375 113.164062 " clip-rule="nonzero"/></clipPath><clipPath id="de021108d8"><path d="M 38.847656 113.164062 L 94.300781 113.164062 C 102.578125 113.164062 109.292969 119.875 109.292969 128.15625 L 109.292969 183.605469 C 109.292969 191.886719 102.578125 198.597656 94.300781 198.597656 L 38.847656 198.597656 C 30.570312 198.597656 23.859375 191.886719 23.859375 183.605469 L 23.859375 128.15625 C 23.859375 119.875 30.570312 113.164062 38.847656 113.164062 Z M 38.847656 113.164062 " clip-rule="nonzero"/></clipPath><clipPath id="249bc6427f"><path d="M 126 126 L 186 126 L 186 186 L 126 186 Z M 126 126 " clip-rule="nonzero"/></clipPath><clipPath id="4a9178acf5"><path d="M 155.824219 110.6875 L 201.019531 155.886719 L 155.824219 201.082031 L 110.625 155.886719 Z M 155.824219 110.6875 " clip-rule="nonzero"/></clipPath><clipPath id="07475c6b79"><path d="M 183.714844 138.582031 L 173.128906 127.992188 C 172.285156 127.148438 171.140625 126.675781 169.949219 126.675781 C 168.753906 126.675781 167.609375 127.148438 166.765625 127.992188 L 159.003906 135.757812 C 158.160156 136.597656 157.015625 137.074219 155.824219 137.074219 C 154.628906 137.074219 153.488281 136.597656 152.644531 135.757812 L 144.878906 127.992188 C 144.035156 127.148438 142.890625 126.675781 141.699219 126.675781 C 140.507812 126.675781 139.363281 127.148438 138.519531 127.992188 L 127.929688 138.582031 C 127.085938 139.425781 126.613281 140.566406 126.613281 141.761719 C 126.613281 142.953125 127.085938 144.097656 127.929688 144.941406 L 135.695312 152.703125 C 136.539062 153.546875 137.011719 154.691406 137.011719 155.886719 C 137.011719 157.078125 136.539062 158.222656 135.695312 159.066406 L 127.929688 166.828125 C 127.085938 167.671875 126.613281 168.816406 126.613281 170.007812 C 126.613281 171.203125 127.085938 172.347656 127.929688 173.191406 L 138.519531 183.777344 C 139.363281 184.621094 140.507812 185.09375 141.699219 185.09375 C 142.890625 185.09375 144.035156 184.621094 144.878906 183.777344 L 152.644531 176.015625 C 153.488281 175.171875 154.628906 174.695312 155.824219 174.695312 C 157.015625 174.695312 158.160156 175.171875 159.003906 176.015625 L 166.765625 183.777344 C 167.609375 184.621094 168.753906 185.09375 169.949219 185.09375 C 171.140625 185.09375 172.285156 184.621094 173.128906 183.777344 L 183.714844 173.191406 C 184.558594 172.347656 185.035156 171.203125 185.035156 170.007812 C 185.035156 168.816406 184.558594 167.671875 183.714844 166.828125 L 175.953125 159.066406 C 175.109375 158.222656 174.636719 157.078125 174.636719 155.886719 C 174.636719 154.691406 175.109375 153.546875 175.953125 152.703125 L 183.714844 144.941406 C 184.558594 144.097656 185.035156 142.953125 185.035156 141.761719 C 185.035156 140.566406 184.558594 139.425781 183.714844 138.582031 Z M 183.714844 138.582031 " clip-rule="nonzero"/></clipPath><clipPath id="770807758b"><path d="M 126 126 L 186 126 L 186 186 L 126 186 Z M 126 126 " clip-rule="nonzero"/></clipPath><clipPath id="55e7edc3f2"><path d="M 155.824219 110.6875 L 201.113281 155.980469 L 155.824219 201.269531 L 110.53125 155.980469 Z M 155.824219 110.6875 " clip-rule="nonzero"/></clipPath><clipPath id="9f8a5239dc"><path d="M 155.824219 110.6875 L 201.019531 155.882812 L 155.824219 201.078125 L 110.628906 155.882812 Z M 155.824219 110.6875 " clip-rule="nonzero"/></clipPath><clipPath id="e9376f364d"><path d="M 183.714844 138.578125 L 173.125 127.992188 C 172.285156 127.148438 171.140625 126.675781 169.945312 126.675781 C 168.753906 126.675781 167.609375 127.148438 166.765625 127.992188 L 159.003906 135.753906 C 158.160156 136.597656 157.015625 137.070312 155.824219 137.070312 C 154.628906 137.070312 153.488281 136.597656 152.644531 135.753906 L 144.878906 127.992188 C 144.035156 127.148438 142.890625 126.675781 141.699219 126.675781 C 140.507812 126.675781 139.363281 127.148438 138.519531 127.992188 L 127.929688 138.578125 C 127.089844 139.421875 126.613281 140.566406 126.613281 141.757812 C 126.613281 142.953125 127.089844 144.097656 127.929688 144.941406 L 135.695312 152.703125 C 136.539062 153.546875 137.011719 154.691406 137.011719 155.882812 C 137.011719 157.074219 136.539062 158.21875 135.695312 159.0625 L 127.929688 166.828125 C 127.089844 167.671875 126.613281 168.8125 126.613281 170.007812 C 126.613281 171.199219 127.089844 172.34375 127.929688 173.1875 L 138.519531 183.773438 C 139.363281 184.617188 140.507812 185.09375 141.699219 185.09375 C 142.890625 185.09375 144.035156 184.617188 144.878906 183.773438 L 152.644531 176.011719 C 153.488281 175.167969 154.628906 174.695312 155.824219 174.695312 C 157.015625 174.695312 158.160156 175.167969 159.003906 176.011719 L 166.765625 183.773438 C 167.609375 184.617188 168.753906 185.09375 169.945312 185.09375 C 171.140625 185.09375 172.285156 184.617188 173.125 183.773438 L 183.714844 173.1875 C 184.558594 172.34375 185.03125 171.199219 185.03125 170.007812 C 185.03125 168.8125 184.558594 167.671875 183.714844 166.828125 L 175.953125 159.0625 C 175.109375 158.21875 174.632812 157.074219 174.632812 155.882812 C 174.632812 154.691406 175.109375 153.546875 175.953125 152.703125 L 183.714844 144.941406 C 184.558594 144.097656 185.03125 142.953125 185.03125 141.757812 C 185.03125 140.566406 184.558594 139.421875 183.714844 138.578125 Z M 183.714844 138.578125 " clip-rule="nonzero"/></clipPath><clipPath id="eab734ec36"><path d="M 34.496094 34.554688 L 98.664062 34.554688 L 98.664062 98.722656 L 34.496094 98.722656 Z M 34.496094 34.554688 " clip-rule="nonzero"/></clipPath><clipPath id="bf9cb089c1"><path d="M 66.578125 34.554688 C 48.859375 34.554688 34.496094 48.917969 34.496094 66.640625 C 34.496094 84.359375 48.859375 98.722656 66.578125 98.722656 C 84.296875 98.722656 98.664062 84.359375 98.664062 66.640625 C 98.664062 48.917969 84.296875 34.554688 66.578125 34.554688 Z M 66.578125 34.554688 " clip-rule="nonzero"/></clipPath><clipPath id="319a5c72b9"><path d="M 34.496094 34.554688 L 98.546875 34.554688 L 98.546875 98.605469 L 34.496094 98.605469 Z M 34.496094 34.554688 " clip-rule="nonzero"/></clipPath><clipPath id="65e5af6bde"><path d="M 66.574219 34.554688 C 48.859375 34.554688 34.496094 48.917969 34.496094 66.636719 C 34.496094 84.351562 48.859375 98.714844 66.574219 98.714844 C 84.292969 98.714844 98.65625 84.351562 98.65625 66.636719 C 98.65625 48.917969 84.292969 34.554688 66.574219 34.554688 Z M 66.574219 34.554688 " clip-rule="nonzero"/></clipPath><clipPath id="80722da20b"><path d="M 49.011719 49.070312 L 84.148438 49.070312 L 84.148438 84.207031 L 49.011719 84.207031 Z M 49.011719 49.070312 " clip-rule="nonzero"/></clipPath><clipPath id="5879b88279"><path d="M 66.578125 49.070312 C 56.875 49.070312 49.011719 56.9375 49.011719 66.640625 C 49.011719 76.34375 56.875 84.207031 66.578125 84.207031 C 76.28125 84.207031 84.148438 76.34375 84.148438 66.640625 C 84.148438 56.9375 76.28125 49.070312 66.578125 49.070312 Z M 66.578125 49.070312 " clip-rule="nonzero"/></clipPath></defs><g clip-path="url(#e73dd1be4d)"><path fill="#ffffff" d="M 0 0.0585938 L 224.878906 0.0585938 L 224.878906 224.941406 L 0 224.941406 Z M 0 0.0585938 " fill-opacity="1" fill-rule="nonzero"/><path fill="#253237" d="M 0 0.0585938 L 224.878906 0.0585938 L 224.878906 224.941406 L 0 224.941406 Z M 0 0.0585938 " fill-opacity="1" fill-rule="nonzero"/></g><g clip-path="url(#85c9cd98f4)"><g clip-path="url(#5e72c5db44)"><path stroke-linecap="butt" transform="matrix(0.582292, 0, 0, 0.582292, 23.858048, 23.918062)" fill="none" stroke-linejoin="miter" d="M 25.742448 -0.000160996 L 120.975032 -0.000160996 C 135.190152 -0.000160996 146.721908 11.524887 146.721908 25.746715 L 146.721908 120.972591 C 146.721908 135.19442 135.190152 146.719467 120.975032 146.719467 L 25.742448 146.719467 C 11.527328 146.719467 0.00227978 135.19442 0.00227978 120.972591 L 0.00227978 25.746715 C 0.00227978 11.524887 11.527328 -0.000160996 25.742448 -0.000160996 Z M 25.742448 -0.000160996 " stroke="#5c6b73" stroke-width="15.44793" stroke-opacity="1" stroke-miterlimit="4"/></g></g><g clip-path="url(#869723c5cd)"><g clip-path="url(#4df717001e)"><path stroke-linecap="butt" transform="matrix(0.582292, 0, 0, 0.582292, 113.103812, 113.163827)" fill="none" stroke-linejoin="miter" d="M 25.743013 0.000404393 L 120.975597 0.000404393 C 135.190717 0.000404393 146.715765 11.525452 146.715765 25.747281 L 146.715765 120.973156 C 146.715765 135.194985 135.190717 146.720033 120.975597 146.720033 L 25.743013 146.720033 C 11.527893 146.720033 0.00284517 135.194985 0.00284517 120.973156 L 0.00284517 25.747281 C 0.00284517 11.525452 11.527893 0.000404393 25.743013 0.000404393 Z M 25.743013 0.000404393 " stroke="#5c6b73" stroke-width="15.44793" stroke-opacity="1" stroke-miterlimit="4"/></g></g><g clip-path="url(#2aa0d8789c)"><g clip-path="url(#66c87c1bec)"><path stroke-linecap="butt" transform="matrix(0.582292, 0, 0, 0.582292, 113.103812, 23.918062)" fill="none" stroke-linejoin="miter" d="M 25.743013 -0.000160996 L 120.975597 -0.000160996 C 135.190717 -0.000160996 146.715765 11.524887 146.715765 25.746715 L 146.715765 120.972591 C 146.715765 135.19442 135.190717 146.719467 120.975597 146.719467 L 25.743013 146.719467 C 11.527893 146.719467 0.00284517 135.19442 0.00284517 120.972591 L 0.00284517 25.746715 C 0.00284517 11.524887 11.527893 -0.000160996 25.743013 -0.000160996 Z M 25.743013 -0.000160996 " stroke="#5c6b73" stroke-width="15.44793" stroke-opacity="1" stroke-miterlimit="4"/></g></g><g clip-path="url(#b692e38126)"><g clip-path="url(#de021108d8)"><path stroke-linecap="butt" transform="matrix(0.582292, 0, 0, 0.582292, 23.858048, 113.163827)" fill="none" stroke-linejoin="miter" d="M 25.742448 0.000404393 L 120.975032 0.000404393 C 135.190152 0.000404393 146.721908 11.525452 146.721908 25.747281 L 146.721908 120.973156 C 146.721908 135.194985 135.190152 146.720033 120.975032 146.720033 L 25.742448 146.720033 C 11.527328 146.720033 0.00227978 135.194985 0.00227978 120.973156 L 0.00227978 25.747281 C 0.00227978 11.525452 11.527328 0.000404393 25.742448 0.000404393 Z M 25.742448 0.000404393 " stroke="#5c6b73" stroke-width="15.44793" stroke-opacity="1" stroke-miterlimit="4"/></g></g><g clip-path="url(#249bc6427f)"><g clip-path="url(#4a9178acf5)"><g clip-path="url(#07475c6b79)"><path fill="#9db4c0" d="M 155.824219 110.6875 L 201.019531 155.886719 L 155.824219 201.082031 L 110.625 155.886719 Z M 155.824219 110.6875 " fill-opacity="1" fill-rule="nonzero"/></g></g></g><g clip-path="url(#770807758b)"><g clip-path="url(#55e7edc3f2)"><g clip-path="url(#9f8a5239dc)"><g clip-path="url(#e9376f364d)"><path stroke-linecap="butt" transform="matrix(0.411742, 0.411742, -0.411742, 0.411742, 155.82316, 110.688022)" fill="none" stroke-linejoin="miter" d="M 67.738711 -0.00191987 L 42.023864 0.00282369 C 39.979389 -0.00191987 38.015554 0.813973 36.564024 2.265503 C 35.117238 3.712289 34.301345 5.676123 34.301345 7.725342 L 34.301345 26.576255 C 34.301345 28.625474 33.485453 30.589308 32.038667 32.036095 C 30.587137 33.487624 28.628046 34.298773 26.578827 34.298773 L 7.72317 34.303517 C 5.673952 34.303517 3.710117 35.11941 2.263331 36.566196 C 0.816545 38.012982 0.000652153 39.976817 0.000652153 42.026035 L -0.00409141 67.740882 C 0.000652153 69.785357 0.811801 71.753935 2.258587 73.200721 C 3.710117 74.652251 5.678695 75.4634 7.72317 75.468144 L 26.578827 75.4634 C 28.628046 75.4634 30.59188 76.279293 32.038667 77.726079 C 33.485453 79.172865 34.301345 81.1367 34.301345 83.185918 L 34.301345 102.046319 C 34.306089 104.090794 35.112494 106.054628 36.564024 107.506158 C 38.010811 108.952944 39.979389 109.764093 42.023864 109.768837 L 67.738711 109.764093 C 69.787929 109.764093 71.756507 108.952944 73.203293 107.506158 C 74.65008 106.059372 75.461229 104.090794 75.461229 102.041575 L 75.465972 83.185918 C 75.465972 81.1367 76.277121 79.177609 77.728651 77.726079 C 79.175437 76.279293 81.139272 75.4634 83.18849 75.4634 L 102.039404 75.4634 C 104.088622 75.4634 106.0572 74.652251 107.503987 73.205465 C 108.955517 71.753935 109.766666 69.785357 109.761922 67.740882 L 109.766666 42.026035 C 109.766666 39.976817 108.950773 38.012982 107.503987 36.566196 C 106.052457 35.114666 104.093366 34.303517 102.044147 34.303517 L 83.18849 34.298773 C 81.139272 34.298773 79.170694 33.487624 77.723908 32.040838 C 76.277121 30.594052 75.465972 28.625474 75.465972 26.576255 L 75.465972 7.725342 C 75.465972 5.676123 74.65008 3.712289 73.19855 2.260759 C 71.751764 0.813973 69.787929 -0.00191987 67.738711 -0.00191987 Z M 67.738711 -0.00191987 " stroke="#9db4c0" stroke-width="15.44793" stroke-opacity="1" stroke-miterlimit="4"/></g></g></g></g><g clip-path="url(#eab734ec36)"><g clip-path="url(#bf9cb089c1)"><path fill="#9db4c0" d="M 34.496094 34.554688 L 98.664062 34.554688 L 98.664062 98.722656 L 34.496094 98.722656 Z M 34.496094 34.554688 " fill-opacity="1" fill-rule="nonzero"/></g></g><g clip-path="url(#319a5c72b9)"><g clip-path="url(#65e5af6bde)"><path stroke-linecap="butt" transform="matrix(0.582292, 0, 0, 0.582292, 34.494463, 34.554478)" fill="none" stroke-linejoin="miter" d="M 55.092262 0.000360544 C 24.669624 0.000360544 0.00280132 24.667183 0.00280132 55.096529 C 0.00280132 85.519167 24.669624 110.18599 55.092262 110.18599 C 85.521608 110.18599 110.188431 85.519167 110.188431 55.096529 C 110.188431 24.667183 85.521608 0.000360544 55.092262 0.000360544 Z M 55.092262 0.000360544 " stroke="#9db4c0" stroke-width="15.44793" stroke-opacity="1" stroke-miterlimit="4"/></g></g><g clip-path="url(#80722da20b)"><g clip-path="url(#5879b88279)"><path fill="#253237" d="M 49.011719 49.070312 L 84.148438 49.070312 L 84.148438 84.207031 L 49.011719 84.207031 Z M 49.011719 49.070312 " fill-opacity="1" fill-rule="nonzero"/></g></g></svg>